name Walk10_EMG.mot
datacolumns 17
datarows 19
range 3.48400000 3.50200000
endheader
                time	            vasmed_r	            vaslat_r	            recfem_r	               gra_r	               sar_r	            tibant_r	           perlong_r	            addmag_r	           semimem_r	          bicfemlh_r	            gasmed_r	            gaslat_r	               sol_r	               tfl_r	              gmed_r	              gmax_r	
          3.48400000	          0.07290257	          0.08694596	          0.22510001	          0.88977580	          0.43250108	          0.11382163	          0.25817897	          0.96271611	          0.15084231	          0.12293668	          0.10510564	          0.16189976	          0.02256511	          0.23263970	          0.14474402	          0.16681374	
          3.48500000	          0.07692966	          0.08961456	          0.22563761	          0.89325600	          0.43191949	          0.11425394	          0.24290398	          0.96495316	          0.14694540	          0.12213840	          0.10695303	          0.15792790	          0.02366393	          0.23142006	          0.14269235	          0.16614307	
          3.48600000	          0.08086541	          0.09224100	          0.22600382	          0.89573345	          0.43118235	          0.11469841	          0.22791796	          0.96657873	          0.14305707	          0.12127351	          0.10883057	          0.15404022	          0.02486268	          0.23019364	          0.14079681	          0.16550678	
          3.48700000	          0.08469769	          0.09481882	          0.22620335	          0.89719584	          0.43028432	          0.11515796	          0.21325135	          0.96763519	          0.13918678	          0.12034846	          0.11072851	          0.15024274	          0.02615368	          0.22897202	          0.13905654	          0.16491110	
          3.48800000	          0.08841520	          0.09734216	          0.22624233	          0.89763495	          0.42922266	          0.11563418	          0.19893243	          0.96815968	          0.13534438	          0.11936972	          0.11263673	          0.14654060	          0.02752902	          0.22776518	          0.13746962	          0.16436128	
          3.48900000	          0.09200760	          0.09980677	          0.22612792	          0.89704603	          0.42799685	          0.11612725	          0.18498773	          0.96818163	          0.13154003	          0.11834434	          0.11454512	          0.14293851	          0.02898037	          0.22658067	          0.13603359	          0.16386080	
          3.49000000	          0.09546548	          0.10220973	          0.22586843	          0.89542707	          0.42660778	          0.11663651	          0.17144254	          0.96772457	          0.12778381	          0.11727977	          0.11644376	          0.13944108	          0.03049884	          0.22542352	          0.13474602	          0.16341124	
          3.49100000	          0.09878033	          0.10454847	          0.22547312	          0.89277857	          0.42505730	          0.11716168	          0.15832146	          0.96681195	          0.12408553	          0.11618321	          0.11832324	          0.13605229	          0.03207514	          0.22429683	          0.13360433	          0.16301339	
          3.49200000	          0.10194450	          0.10682023	          0.22495153	          0.88910458	          0.42334859	          0.11770425	          0.14564833	          0.96547224	          0.12045470	          0.11506135	          0.12017467	          0.13277506	          0.03369984	          0.22320272	          0.13260493	          0.16266878	
          3.49300000	          0.10495112	          0.10902209	          0.22431342	          0.88441463	          0.42148763	          0.11826835	          0.13344563	          0.96374091	          0.11690051	          0.11392043	          0.12198936	          0.12961110	          0.03536362	          0.22214303	          0.13174247	          0.16238004	
          3.49400000	          0.10779396	          0.11115101	          0.22356960	          0.87872538	          0.41948591	          0.11886181	          0.12173360	          0.96166065	          0.11343181	          0.11276638	          0.12375869	          0.12656153	          0.03705740	          0.22111956	          0.13100971	          0.16215036	
          3.49500000	          0.11046746	          0.11320388	          0.22273252	          0.87206112	          0.41736152	          0.11949668	          0.11052965	          0.95927782	          0.11005716	          0.11160495	          0.12547452	          0.12362788	          0.03877257	          0.22013441	          0.13039812	          0.16198337	
          3.49600000	          0.11296674	          0.11517737	          0.22181498	          0.86445261	          0.41513677	          0.12018861	          0.09984811	          0.95663633	          0.10678467	          0.11044182	          0.12712970	          0.12081262	          0.04050114	          0.21918965	          0.12989854	          0.16188278	
          3.49700000	          0.11528769	          0.11706825	          0.22082851	          0.85593525	          0.41283503	          0.12095491	          0.08970064	          0.95377521	          0.10362170	          0.10928260	          0.12871839	          0.11811843	          0.04223589	          0.21828646	          0.12950192	          0.16185136	
          3.49800000	          0.11742689	          0.11887361	          0.21978342	          0.84654760	          0.41047995	          0.12181212	          0.08009673	          0.95072911	          0.10057470	          0.10813270	          0.13023621	          0.11554714	          0.04397004	          0.21742483	          0.12920037	          0.16189044	
          3.49900000	          0.11938175	          0.12059064	          0.21869024	          0.83633065	          0.40809571	          0.12277453	          0.07104372	          0.94752834	          0.09764946	          0.10699715	          0.13167990	          0.11309959	          0.04569698	          0.21660461	          0.12898816	          0.16199980	
          3.50000000	          0.12115068	          0.12221612	          0.21756082	          0.82532810	          0.40570645	          0.12385425	          0.06254657	          0.94419873	          0.09485143	          0.10588027	          0.13304665	          0.11077596	          0.04741011	          0.21582737	          0.12886177	          0.16217818	
          3.50100000	          0.12273319	          0.12374620	          0.21640834	          0.81358719	          0.40333558	          0.12506223	          0.05460771	          0.94076252	          0.09218561	          0.10478556	          0.13433382	          0.10857595	          0.04910290	          0.21509712	          0.12881893	          0.16242400	
          3.50200000	          0.12412996	          0.12517640	          0.21524641	          0.80115859	          0.40100734	          0.12640959	          0.04722692	          0.93723915	          0.08965596	          0.10371576	          0.13553892	          0.10649835	          0.05076894	          0.21441889	          0.12885748	          0.16273555	
